<?xml version="1.0" encoding="UTF-8"?>
<svg width="50px" height="50px" viewBox="0 0 210 297" xmlns="http://www.w3.org/2000/svg">
 <path d="m105.37 288.46h-0.73847c-17.34 0.01068-35.131-0.1645-43.691-0.48955 21.889-16.435 51.073-31.075 6.3666-43.818-48.332-13.776-39.192-130.6-74.407-146.33-7.4275-3.3166-15.9-0.36777-23.654-0.56777 68.309-61.983 74.199 67.821 99.417 110.11 6.9981 11.735 12.919 15.271 24.613 17.299-0.64554-57.558-0.45222-115.14-1.937-172.68-0.5303-20.586-14.442-31.813-27.556-43.032-0.50801-0.43483 20.309-0.47904 41.217-0.38471 20.909-0.09433 41.726-0.05012 41.217 0.38471-13.114 11.219-27.026 22.446-27.556 43.032-1.4847 57.538-1.2914 115.12-1.937 172.68 11.694-2.0277 17.614-5.5637 24.613-17.299 25.218-42.289 31.109-172.09 99.417-110.11-7.7537 0.2-16.226-2.7488-23.654 0.56777-35.215 15.728-26.075 132.55-74.407 146.33-44.707 12.743-15.522 27.383 6.3667 43.818-8.5597 0.32505-26.351 0.50006-43.691 0.48955z"/>
</svg>
